<?xml version="1.0" encoding="UTF-8" standalone="no"?>
<!-- Created with Inkscape (http://www.inkscape.org/) -->

<svg
   xmlns:dc="http://purl.org/dc/elements/1.1/"
   xmlns:cc="http://creativecommons.org/ns#"
   xmlns:rdf="http://www.w3.org/1999/02/22-rdf-syntax-ns#"
   xmlns:svg="http://www.w3.org/2000/svg"
   xmlns="http://www.w3.org/2000/svg"
   xmlns:sodipodi="http://sodipodi.sourceforge.net/DTD/sodipodi-0.dtd"
   xmlns:inkscape="http://www.inkscape.org/namespaces/inkscape"
   width="332.14285"
   height="382.85712"
   id="svg5461"
   version="1.1"
   inkscape:version="0.48.4 r9939"
   sodipodi:docname="Hide the pain Harold.svg">
  <defs
     id="defs5463" />
  <sodipodi:namedview
     id="base"
     pagecolor="#ffffff"
     bordercolor="#666666"
     borderopacity="1.0"
     inkscape:pageopacity="0.0"
     inkscape:pageshadow="2"
     inkscape:zoom="0.7"
     inkscape:cx="53.419801"
     inkscape:cy="295.52248"
     inkscape:document-units="px"
     inkscape:current-layer="layer1"
     showgrid="false"
     fit-margin-top="0"
     fit-margin-left="0"
     fit-margin-right="0"
     fit-margin-bottom="0"
     inkscape:window-width="1920"
     inkscape:window-height="1018"
     inkscape:window-x="-8"
     inkscape:window-y="-8"
     inkscape:window-maximized="1" />
  <metadata
     id="metadata5466">
    <rdf:RDF>
      <cc:Work
         rdf:about="">
        <dc:format>image/svg+xml</dc:format>
        <dc:type
           rdf:resource="http://purl.org/dc/dcmitype/StillImage" />
        <dc:title></dc:title>
      </cc:Work>
    </rdf:RDF>
  </metadata>
  <g
     inkscape:label="Layer 1"
     inkscape:groupmode="layer"
     id="layer1"
     transform="translate(-672.14288,-324.50507)">
    <rect
       style="color:#000000;fill:#000000;stroke:none;stroke-width:0.30000001;marker:none;visibility:visible;display:inline;overflow:visible;enable-background:accumulate"
       id="rect6378"
       width="332.14285"
       height="382.85712"
       x="672.14288"
       y="324.50507" />
    <path
       sodipodi:nodetypes="ccsccccsc"
       inkscape:connector-curvature="0"
       id="path5542"
       d="m 833.18212,353.79075 c -46.82206,-1.56229 -98.35896,26.73454 -110,77.14286 -0.88406,5.91638 -1.19047,11.90476 -1.78571,17.85714 -0.3508,3.50797 0.26127,5.2445 -0.35714,15 0,3.57143 3.92857,-7.85714 3.92857,-7.85714 -1.49213,5.66285 -1.17232,13.68725 -1.17232,22.0562 1.68553,-9.51007 8.03708,-12.21946 12.95803,-19.5562 1.78572,-2.85714 50.52591,-32.94713 69.64286,-55.71429 11.95648,-14.23947 26.78571,-48.92857 26.78571,-48.92857 z"
       style="fill:#ffffff;stroke:none" />
    <path
       sodipodi:nodetypes="csssscssccsscccccssssscc"
       inkscape:connector-curvature="0"
       id="path5588"
       d="m 725.54206,462.4331 c 4.85241,-23.43979 13.16621,-51.11569 28.03173,-67.68023 26.88698,-29.95997 74.1635,-43.38776 106.82364,-36.87056 28.07969,5.60319 48.1769,20.43872 63.13453,41.92133 12.32263,17.69814 14.34981,38.80722 14.89975,58.33631 0.21846,7.75788 -1.01015,15.48901 -1.51523,23.23351 3.54237,-4.76212 9.82772,-11.90469 15.40483,-8.5863 7.54643,4.49013 5.71831,15.73168 5.3033,22.72843 -0.23192,3.90996 -1.41667,7.7157 -1.76777,11.61676 0.76049,10.1156 -1.77156,18.8576 -5.3033,27.52665 -1.44532,3.55772 -4.2084,7.07034 -6.56599,10.10153 -3.61805,4.65178 -4.01922,9.37393 -11.11168,12.6269 -1.69374,0.77683 -3.53553,-1.17851 -5.3033,-1.76776 -0.4209,4.29315 -0.78009,8.59279 -1.26269,12.87944 -4.81938,28.53341 -7.42903,53.37957 -5.07922,71.80133 -54.19469,43.63583 -113.15112,50.38732 -170.93986,26.70341 1.17851,-9.68063 2.35702,-10.78982 3.53553,-20.47045 -2.94628,-7.40779 -5.64926,-14.91703 -8.83883,-22.22336 -4.05298,-9.28414 -9.22659,-18.07793 -12.87945,-27.52666 -2.68098,-6.9348 -5.23985,-14.07622 -6.06091,-21.46574 -1.21778,-10.96005 -0.63219,-22.07303 -1.26269,-33.08249 -0.46626,-8.14164 -1.81776,-16.0912 -2.02031,-24.24366 -0.1372,-5.52216 1.51523,-10.94332 2.27285,-16.41498 1.40619,-11.25693 -1.21252,-29.9561 0.50507,-39.14341 z"
       style="fill:#e3b49a;fill-opacity:1;stroke:none" />
    <path
       inkscape:connector-curvature="0"
       id="path5544"
       d="m 840.95568,573.33985 c -3.50239,-0.10737 -7.02661,-0.72529 -10.50707,-0.32024 -4.23529,0.49278 -8.26416,2.11328 -12.43686,2.98982 -4.97942,1.04611 -9.98223,1.99387 -15.00999,2.77623 -4.12582,0.64201 -8.26197,1.56658 -12.43685,1.49482 -4.19435,-0.0716 -8.27559,-1.39291 -12.43695,-1.92192 -2.56135,-0.32569 -5.13777,-0.68212 -7.7194,-0.64067 -1.87989,0.0301 -3.71675,0.5695 -5.57517,0.85413 2.00133,1.99328 3.75366,4.27217 6.00407,5.97965 2.29271,1.73975 4.74843,3.44102 7.50495,4.27105 3.51418,1.05814 7.26747,1.16441 10.93588,1.28137 5.28854,0.16956 10.60476,0.1187 15.8677,-0.42725 3.70871,-0.38411 7.29059,-1.56603 10.93589,-2.34894 3.64529,-0.78295 6.86169,-1.70865 7.93394,-2.34934 1.07207,-0.64071 5.78953,-2.56259 7.2905,-3.41671 1.50106,-0.85412 3.18871,-1.44265 4.50301,-2.56259 1.94102,-1.65382 3.43084,-3.77295 5.14635,-5.65941 z"
       style="fill:#1a1a1a;stroke:#98826d;stroke-width:3.0950222;stroke-linecap:round;stroke-linejoin:round;stroke-miterlimit:4;stroke-opacity:1;stroke-dasharray:none;stroke-dashoffset:0.8"
       sodipodi:nodetypes="csssssscssssssssc"
       inkscape:export-filename="D:\!Закачалось D\path4005.png"
       inkscape:export-xdpi="90"
       inkscape:export-ydpi="90" />
    <path
       id="path5546"
       d="m 830.45445,573.00737 2.01659,0.0528 0.26534,7.68997 -1.4328,0.81928 c 0,0 -1.88556,0.82345 -3.76783,1.69131 l -0.29193,-5.12684 0.34493,-4.43945 2.8657,-0.68703 z m -5.09454,1.24179 1.64515,3.46194 0.29184,5.68165 c -1.43043,0.66142 -2.83811,1.31531 -3.29022,1.58544 -0.28097,0.16765 -0.95593,0.39618 -1.80432,0.66065 l -2.25544,-2.58969 -1.30013,-3.62036 0,-3.56742 6.71312,-1.61221 z m -9.2074,2.11424 1.85741,4.54514 0.68986,5.73459 c -1.22283,0.32289 -2.62686,0.68702 -2.62686,0.68702 l -5.3068,1.13633 -0.47761,-2.64263 -0.63686,-4.25448 0.37152,-4.06984 6.12934,-1.13613 z m -44.33865,1.47978 6.31519,0.52857 0.87562,0.13189 0.18567,3.06555 0.29185,1.77044 -0.0795,-0.92478 1.16756,-3.6733 4.88229,0.73978 1.67165,3.77899 -0.21225,4.91531 -0.82263,1.55906 -5.811,-0.68703 c -0.34666,-0.60058 -0.42451,-1.29477 -0.42451,-1.29495 l -0.0265,-0.2907 -0.61028,1.4534 -0.87562,-0.10551 -6.31519,-3.56742 -0.55719,-2.19333 0.34493,-5.20597 z m 15.31024,5.41732 0,-0.21135 1.4859,-3.0654 1.96359,0.2907 5.99666,-0.71362 1.4594,4.22828 0.053,-1.37408 0.58377,-3.11849 4.32511,-0.50205 3.63515,-0.66065 2.3881,4.28119 0.15908,6.39487 -4.03317,0.87221 -7.08463,0.18461 -0.15908,-0.47545 -0.0265,0.47545 -8.59712,0.23796 -1.4594,-0.15824 -0.4776,-2.40472 -0.21226,-4.28103 z"
       style="fill:#f5f1e6;fill-opacity:1;stroke:none"
       inkscape:connector-curvature="0"
       inkscape:export-filename="D:\!Закачалось D\path4005.png"
       inkscape:export-xdpi="90"
       inkscape:export-ydpi="90" />
    <path
       inkscape:connector-curvature="0"
       id="path5548"
       d="m 816.08188,502.76008 c 3.43093,-2.42037 6.40647,-5.6698 10.29262,-7.26087 2.78485,-1.14028 6.00508,-0.86847 9.00602,-0.6407 4.55755,0.34585 9.04292,1.37783 13.50901,2.34912 1.76623,0.38412 3.43085,1.13898 5.14627,1.70847 -2.85904,0.85412 -5.70848,1.74124 -8.57711,2.56259 -2.84981,0.81589 -5.62579,2.0707 -8.5772,2.34912 -3.91631,0.36962 -7.86496,-0.2253 -11.7936,-0.42706 -3.0056,-0.15445 -6.00398,-0.42706 -9.00601,-0.64067 z"
       style="fill:#f2f2f2;stroke:#000000;stroke-width:3.0950222;stroke-linecap:round;stroke-linejoin:round;stroke-miterlimit:4;stroke-opacity:1;stroke-dasharray:none;stroke-dashoffset:0.8"
       sodipodi:nodetypes="cssscsssc"
       inkscape:export-filename="D:\!Закачалось D\path4005.png"
       inkscape:export-xdpi="90"
       inkscape:export-ydpi="90" />
    <path
       inkscape:connector-curvature="0"
       id="path5550"
       d="m 767.83543,501.47869 c -2.28723,-1.56604 -4.27577,-3.69874 -6.86178,-4.69811 -2.34827,-0.90761 -4.99286,-0.68478 -7.50495,-0.85431 -1.71159,-0.11493 -3.51838,-0.54049 -5.14627,0 -2.58081,0.85677 -4.71746,2.70501 -7.07614,4.05759 0.42881,1.35258 0.14528,3.21324 1.28652,4.05759 1.71341,1.26763 4.08726,1.43833 6.21843,1.49483 3.30594,0.0886 6.62896,-0.37998 9.86372,-1.06777 3.16048,-0.67195 6.14698,-1.99327 9.22047,-2.98982 z"
       style="fill:#f2f2f2;stroke:#000000;stroke-width:3.0950222;stroke-linecap:round;stroke-linejoin:round;stroke-miterlimit:4;stroke-opacity:1;stroke-dasharray:none;stroke-dashoffset:0.8"
       sodipodi:nodetypes="cssscsssc"
       inkscape:export-filename="D:\!Закачалось D\path4005.png"
       inkscape:export-xdpi="90"
       inkscape:export-ydpi="90" />
    <path
       inkscape:connector-curvature="0"
       id="path5552"
       d="m 765.47665,507.45834 c -4.503,1.63725 -8.77118,4.19457 -13.50892,4.91174 -4.39062,0.66461 -8.96865,0.14694 -13.29466,-0.85433 -2.00645,-0.46474 -3.43085,-2.27774 -5.14627,-3.41671"
       style="fill:none;stroke:#000000;stroke-width:3.0950222;stroke-linecap:round;stroke-linejoin:round;stroke-miterlimit:4;stroke-opacity:1;stroke-dasharray:none;stroke-dashoffset:0.8"
       sodipodi:nodetypes="cssc"
       inkscape:export-filename="D:\!Закачалось D\path4005.png"
       inkscape:export-xdpi="90"
       inkscape:export-ydpi="90" />
    <path
       inkscape:connector-curvature="0"
       id="path5554"
       d="m 767.83543,513.86491 c -4.3601,1.85085 -8.51361,4.29365 -13.08021,5.55242 -3.53072,0.97318 -7.35729,1.84747 -10.9358,1.06776 -3.62647,-0.7901 -6.43297,-3.70157 -9.64936,-5.55242 3.00204,0.71188 5.93938,1.79621 9.00601,2.13549 3.41001,0.37736 6.95809,0.80649 10.29263,0 1.92905,-0.46662 3.14494,-2.42016 4.71745,-3.63031"
       style="fill:none;stroke:#000000;stroke-width:3.0950222;stroke-linecap:round;stroke-linejoin:round;stroke-miterlimit:4;stroke-opacity:1;stroke-dasharray:none;stroke-dashoffset:0.8"
       sodipodi:nodetypes="csscssc"
       inkscape:export-filename="D:\!Закачалось D\path4005.png"
       inkscape:export-xdpi="90"
       inkscape:export-ydpi="90" />
    <path
       inkscape:connector-curvature="0"
       id="path5556"
       d="m 771.48072,498.9161 c -3.00203,-1.9931 -5.53304,-5.01628 -9.00601,-5.97948 -2.58136,-0.71587 -5.28662,0.87109 -7.93385,1.28118 -3.78564,0.58646 -7.73384,0.48793 -11.36479,1.70847 -2.23423,0.7509 -4.23757,2.28471 -5.78952,4.05759 -0.99423,1.13578 -1.00071,2.8474 -1.50098,4.27105 -2.35877,0.35585 -4.71745,0.71187 -7.07623,1.06772"
       style="fill:none;stroke:#000000;stroke-width:3.0950222;stroke-linecap:round;stroke-linejoin:round;stroke-miterlimit:4;stroke-opacity:1;stroke-dasharray:none;stroke-dashoffset:0.8"
       sodipodi:nodetypes="csssscc"
       inkscape:export-filename="D:\!Закачалось D\path4005.png"
       inkscape:export-xdpi="90"
       inkscape:export-ydpi="90" />
    <path
       inkscape:connector-curvature="0"
       id="path5558"
       d="m 882.5549,498.48903 -9.22046,0 -6.64733,1.06777 -6.21843,1.70846 -4.93191,-2.77623 -4.28855,4.48466 -8.57712,4.0574"
       style="fill:none;stroke:#000000;stroke-width:3.0950222;stroke-linecap:round;stroke-linejoin:round;stroke-miterlimit:4;stroke-opacity:1;stroke-dasharray:none;stroke-dashoffset:0.8"
       inkscape:export-filename="D:\!Закачалось D\path4005.png"
       inkscape:export-xdpi="90"
       inkscape:export-ydpi="90" />
    <path
       inkscape:connector-curvature="0"
       id="path5560"
       d="m 879.55286,485.24851 c 0,0 -6.21842,8.96929 -7.29059,9.39658 -1.07216,0.42705 -6.64733,3.84394 -6.64733,3.84394 l -2.57313,1.9219"
       style="fill:none;stroke:#000000;stroke-width:3.0950222;stroke-linecap:round;stroke-linejoin:round;stroke-miterlimit:4;stroke-opacity:1;stroke-dasharray:none;stroke-dashoffset:0.8"
       inkscape:export-filename="D:\!Закачалось D\path4005.png"
       inkscape:export-xdpi="90"
       inkscape:export-ydpi="90" />
    <path
       inkscape:connector-curvature="0"
       id="path5562"
       d="m 856.60893,509.1668 c -2.57313,1.3524 -4.91052,3.30764 -7.7194,4.05741 -4.23976,1.13182 -8.69169,1.495 -13.0802,1.495 -2.90217,0 -5.71808,-0.99673 -8.57712,-1.495"
       style="fill:none;stroke:#000000;stroke-width:3.0950222;stroke-linecap:round;stroke-linejoin:round;stroke-miterlimit:4;stroke-opacity:1;stroke-dasharray:none;stroke-dashoffset:0.8"
       sodipodi:nodetypes="cssc"
       inkscape:export-filename="D:\!Закачалось D\path4005.png"
       inkscape:export-xdpi="90"
       inkscape:export-ydpi="90" />
    <path
       inkscape:connector-curvature="0"
       id="path5564"
       d="m 864.75723,511.94303 c -1.42952,0.14315 -2.96384,-0.12811 -4.28855,0.42705 -2.83464,1.18868 -4.97622,3.86052 -7.93385,4.69808 -4.49561,1.27294 -9.26524,1.49505 -13.93792,1.49505 -4.74368,0 -9.60605,-0.14131 -14.15228,-1.49505 -2.601,-0.77444 -4.43155,-3.13203 -6.64733,-4.69808"
       style="fill:none;stroke:#000000;stroke-width:3.0950222;stroke-linecap:round;stroke-linejoin:round;stroke-miterlimit:4;stroke-opacity:1;stroke-dasharray:none;stroke-dashoffset:0.8"
       sodipodi:nodetypes="cssssc"
       inkscape:export-filename="D:\!Закачалось D\path4005.png"
       inkscape:export-xdpi="90"
       inkscape:export-ydpi="90" />
    <path
       inkscape:connector-curvature="0"
       id="path5566"
       d="m 814.79536,499.34334 c 2.07278,-1.99328 3.44172,-5.22821 6.21843,-5.97966 4.35132,-1.17759 9.01323,0.30764 13.50901,0.6407 4.15616,0.30782 8.29121,0.85413 12.43686,1.28119"
       style="fill:none;stroke:#000000;stroke-width:3.0950222;stroke-linecap:round;stroke-linejoin:round;stroke-miterlimit:4;stroke-opacity:1;stroke-dasharray:none;stroke-dashoffset:0.8"
       sodipodi:nodetypes="cssc"
       inkscape:export-filename="D:\!Закачалось D\path4005.png"
       inkscape:export-xdpi="90"
       inkscape:export-ydpi="90" />
    <path
       id="path5568"
       d="m 835.38983,494.86531 9.28699,1.61217 c 0.22459,0.69851 0.34493,1.44679 0.34493,2.21971 0,1.10697 -0.24506,2.15304 -0.68986,3.09178 l -7.45616,2.0347 c 0,0 -2.24429,-0.0265 -4.32501,-0.0527 -1.29484,-1.31061 -2.09627,-3.09006 -2.09627,-5.07375 l 0,-0.0266 c 0.009,-1.29608 0.3517,-2.51717 0.9553,-3.5676 2.02106,-0.12433 3.98008,-0.23773 3.98008,-0.23773 z"
       style="fill:#7f7c83;fill-opacity:1;stroke:none"
       inkscape:connector-curvature="0"
       inkscape:export-filename="D:\!Закачалось D\path4005.png"
       inkscape:export-xdpi="90"
       inkscape:export-ydpi="90" />
    <path
       transform="matrix(-0.31932955,0,0,0.31802789,712.09764,152.53715)"
       sodipodi:type="arc"
       style="fill:#1b1f1e;fill-opacity:1;stroke:none"
       id="path5570"
       sodipodi:cx="-393.45441"
       sodipodi:cy="1088.4751"
       sodipodi:rx="8.586297"
       sodipodi:ry="8.586297"
       d="m -384.86811,1088.4751 c 0,4.7421 -3.84422,8.5863 -8.5863,8.5863 -4.74208,0 -8.58629,-3.8442 -8.58629,-8.5863 0,-4.7421 3.84421,-8.5863 8.58629,-8.5863 4.72366,0 8.56021,3.8155 8.58617,8.5391"
       sodipodi:start="0"
       sodipodi:end="6.2776887"
       sodipodi:open="true"
       inkscape:export-filename="D:\!Закачалось D\path4005.png"
       inkscape:export-xdpi="90"
       inkscape:export-ydpi="90" />
    <path
       sodipodi:open="true"
       sodipodi:end="6.2776887"
       sodipodi:start="0"
       d="m -384.86811,1088.4751 c 0,4.7421 -3.84422,8.5863 -8.5863,8.5863 -4.74208,0 -8.58629,-3.8442 -8.58629,-8.5863 0,-4.7421 3.84421,-8.5863 8.58629,-8.5863 4.72366,0 8.56021,3.8155 8.58617,8.5391"
       sodipodi:ry="8.586297"
       sodipodi:rx="8.586297"
       sodipodi:cy="1088.4751"
       sodipodi:cx="-393.45441"
       id="path5572"
       style="fill:#ced6e1;fill-opacity:1;stroke:none"
       sodipodi:type="arc"
       transform="matrix(-0.23986474,0,0,0.31802789,739.87598,152.15964)"
       inkscape:export-filename="D:\!Закачалось D\path4005.png"
       inkscape:export-xdpi="90"
       inkscape:export-ydpi="90" />
    <path
       id="path5574"
       d="m 753.47875,495.92249 7.48265,0.84548 3.07797,2.11423 c 0.11156,0.50485 0.18566,1.02085 0.18566,1.55906 0,0.81154 -0.1514,1.59674 -0.39801,2.32541 l -5.20073,1.69131 c 0,0 -4.13194,0.53275 -7.11113,0.84566 -1.16555,-1.28704 -1.88391,-2.99267 -1.88391,-4.86238 l 0,-0.0528 c 0.009,-1.69321 0.60927,-3.23624 1.59207,-4.4662 l 2.25534,0 z"
       style="fill:#7f7c83;fill-opacity:1;stroke:none"
       inkscape:connector-curvature="0"
       inkscape:export-filename="D:\!Закачалось D\path4005.png"
       inkscape:export-xdpi="90"
       inkscape:export-ydpi="90" />
    <path
       sodipodi:open="true"
       sodipodi:end="6.2776887"
       sodipodi:start="0"
       d="m -384.86811,1088.4751 c 0,4.7421 -3.84422,8.5863 -8.5863,8.5863 -4.74208,0 -8.58629,-3.8442 -8.58629,-8.5863 0,-4.7421 3.84421,-8.5863 8.58629,-8.5863 4.72366,0 8.56021,3.8155 8.58617,8.5391"
       sodipodi:ry="8.586297"
       sodipodi:rx="8.586297"
       sodipodi:cy="1088.4751"
       sodipodi:cx="-393.45441"
       id="path5576"
       style="fill:#1b1f1e;fill-opacity:1;stroke:none"
       sodipodi:type="arc"
       transform="matrix(-0.31932955,0,0,0.31802789,631.28201,154.27365)"
       inkscape:export-filename="D:\!Закачалось D\path4005.png"
       inkscape:export-xdpi="90"
       inkscape:export-ydpi="90" />
    <path
       transform="matrix(-0.23986474,0,0,0.31802789,659.06036,153.89615)"
       sodipodi:type="arc"
       style="fill:#ced6e1;fill-opacity:1;stroke:none"
       id="path5578"
       sodipodi:cx="-393.45441"
       sodipodi:cy="1088.4751"
       sodipodi:rx="8.586297"
       sodipodi:ry="8.586297"
       d="m -384.86811,1088.4751 c 0,4.7421 -3.84422,8.5863 -8.5863,8.5863 -4.74208,0 -8.58629,-3.8442 -8.58629,-8.5863 0,-4.7421 3.84421,-8.5863 8.58629,-8.5863 4.72366,0 8.56021,3.8155 8.58617,8.5391"
       sodipodi:start="0"
       sodipodi:end="6.2776887"
       sodipodi:open="true"
       inkscape:export-filename="D:\!Закачалось D\path4005.png"
       inkscape:export-xdpi="90"
       inkscape:export-ydpi="90" />
    <path
       sodipodi:nodetypes="csssssscssssssssc"
       style="fill:none;stroke:#000000;stroke-width:3.0950222;stroke-linecap:round;stroke-linejoin:round;stroke-miterlimit:4;stroke-opacity:1;stroke-dasharray:none;stroke-dashoffset:0.8"
       d="m 840.95568,573.33985 c -3.50239,-0.10737 -7.02661,-0.72529 -10.50707,-0.32024 -4.23529,0.49278 -8.26416,2.11328 -12.43686,2.98982 -4.97942,1.04611 -9.98223,1.99387 -15.00999,2.77623 -4.12582,0.64201 -8.26197,1.56658 -12.43685,1.49482 -4.19435,-0.0716 -8.27559,-1.39291 -12.43695,-1.92192 -2.56135,-0.32569 -5.13777,-0.68212 -7.7194,-0.64067 -1.87989,0.0301 -3.71675,0.5695 -5.57517,0.85413 2.00133,1.99328 3.75366,4.27217 6.00407,5.97965 2.29271,1.73975 4.74843,3.44102 7.50495,4.27105 3.51418,1.05814 7.26747,1.16441 10.93588,1.28137 5.28854,0.16956 10.60476,0.1187 15.8677,-0.42725 3.70871,-0.38411 7.29059,-1.56603 10.93589,-2.34894 3.64529,-0.78295 6.86169,-1.70865 7.93394,-2.34934 1.07207,-0.64071 5.78953,-2.56259 7.2905,-3.41671 1.50106,-0.85412 3.18871,-1.44265 4.50301,-2.56259 1.94102,-1.65382 3.43084,-3.77295 5.14635,-5.65941 z"
       id="path5580"
       inkscape:connector-curvature="0"
       inkscape:export-filename="D:\!Закачалось D\path4005.png"
       inkscape:export-xdpi="90"
       inkscape:export-ydpi="90" />
    <path
       sodipodi:nodetypes="csssssssssssc"
       inkscape:connector-curvature="0"
       id="path5582"
       d="m 817.65778,534.45316 c 1.08723,2.95723 2.39843,4.89608 1.7791,7.98463 -0.56212,2.80315 -2.16808,5.54845 -4.74422,6.80159 -1.77674,0.86447 -4.02093,-0.50994 -5.93034,0 -3.72341,0.99505 -7.51134,2.23892 -10.67456,4.43626 -2.53393,1.75968 -3.27304,5.52886 -5.93033,7.09752 -2.50305,1.4773 -5.70994,1.81469 -8.59895,1.47862 -3.26335,-0.37977 -6.44932,-1.74463 -9.19195,-3.54897 -2.04948,-1.34807 -3.12758,-3.77594 -4.74423,-5.61872 -1.84325,-2.10086 -5.31302,-3.43706 -5.63383,-6.21023 -0.38084,-3.29201 2.46239,-6.15903 3.85472,-9.16772 1.57444,-3.40217 3.93266,-6.47396 5.04073,-10.05476 1.38968,-4.49089 1.58147,-9.26621 2.37212,-13.89914"
       style="fill:none;stroke:#000000;stroke-width:3.0950222;stroke-linecap:round;stroke-linejoin:round;stroke-miterlimit:4;stroke-opacity:1;stroke-dasharray:none"
       inkscape:export-filename="D:\!Закачалось D\path4005.png"
       inkscape:export-xdpi="90"
       inkscape:export-ydpi="90" />
    <path
       sodipodi:nodetypes="cc"
       inkscape:connector-curvature="0"
       id="path5584"
       d="m 841.08251,547.76113 c -6.39615,-6.57815 -13.23984,-9.33047 -21.64563,-12.12511"
       style="fill:none;stroke:#000000;stroke-width:3.0950222;stroke-linecap:round;stroke-linejoin:round;stroke-miterlimit:4;stroke-opacity:1;stroke-dasharray:none;stroke-dashoffset:0.8"
       inkscape:export-filename="D:\!Закачалось D\path4005.png"
       inkscape:export-xdpi="90"
       inkscape:export-ydpi="90" />
    <path
       sodipodi:nodetypes="cc"
       inkscape:connector-curvature="0"
       id="path5586"
       d="m 764.87798,539.77631 c -14.64843,8.70482 -20.55043,21.23327 -19.86651,37.2619"
       style="fill:none;stroke:#000000;stroke-width:3.0950222;stroke-linecap:round;stroke-linejoin:round;stroke-miterlimit:4;stroke-opacity:1;stroke-dasharray:none;stroke-dashoffset:0.8"
       inkscape:export-filename="D:\!Закачалось D\path4005.png"
       inkscape:export-xdpi="90"
       inkscape:export-ydpi="90" />
    <path
       style="opacity:0.73929958;fill:#ffffff;stroke:none"
       d="m 844.375,352.5 c -15.14574,-0.15311 -32.11603,6.85548 -47.90625,13.1875 l -4.71875,8.09375 c 12.97619,-4.34549 25.93006,-9.03825 38.90625,-7.84375 l -7.5,8.5625 13.21875,-5 -10.34375,12.5 21.4375,-8.9375 -8.9375,14.65625 13.9375,-2.84375 -2.875,11.78125 L 864.25,387 854.59375,405.21875 879.25,389.875 l -8.9375,18.5625 12.84375,-11.0625 -1.0625,26.0625 8.5625,-17.5 -1.0625,25 7.15625,-7.5 c 0.1122,18.17714 2.86415,28.9518 13.90625,41.0625 0.68001,8.14919 -2.32586,16.23666 2.875,21.4375 -8.34306,13.97203 -9.4969,18.10611 -5.71875,33.21875 -4.72353,9.82314 -2.82821,20.64757 -2.5,30.34375 1.26634,37.41033 -26.50159,40.44505 -45.34375,26.78125 -3.10349,-2.25057 -4.66912,-6.10279 -6.8125,-9.28125 -14.43451,-18.53133 -33.76623,-15.72856 -52.9375,-12.84375 -0.42635,0.24871 -0.84846,0.50232 -1.25,0.78125 -0.89968,0.62478 -1.62639,1.78377 -2.46875,3.15625 -0.84236,1.37248 -1.82069,2.97177 -3.5625,4 -2.91249,1.7189 -6.42485,2.05249 -9.5625,1.6875 -3.57134,-0.41561 -6.94076,-1.87141 -9.84375,-3.78125 -2.19347,-1.44278 -3.33979,-3.57016 -4.5,-5.15625 -7.56598,1.58136 -10.7327,0.97239 -14,7.5625 -1.54813,3.12256 -3.19242,32.53573 -26.15625,14.59375 -0.9527,-0.80701 -1.92149,-1.57611 -2.90625,-2.34375 0.0228,0.21816 0.0383,0.43821 0.0625,0.65625 0.82106,7.38952 2.13152,14.0027 4.8125,20.9375 3.65286,9.44873 8.29077,18.77836 12.34375,28.0625 2.91644,6.68067 3.82593,12.94837 8.28125,18.71875 7.92919,10.26962 22.0954,19.99127 33.125,22.90625 17.31676,4.57661 46.79383,4.8691 61.0625,-1.4375 46.62828,-23.92035 81.01336,-50.29379 80.65625,-96 0.4826,-4.28665 0.8291,-8.58185 1.25,-12.875 0.0648,0.0216 0.12254,0.0688 0.1875,0.0937 l -0.28125,-0.84375 -5.71875,-27.15625 7.125,-33.5625 5.71875,-11.4375 2.46875,-3.28125 c 0.55972,-7.09708 4.32525,-17.98262 4.125,-25.09375 -0.54994,-19.52909 -3.26314,-44.39263 -14.375,-62.875 -13.43779,-22.35109 -35.03023,-33.53043 -66.1875,-37.375 -5.16459,-0.63727 -10.5667,-1.5363 -16.25,-1.59375 z m -11.3125,218.8125 c 0.91482,0.005 1.8228,0.0651 2.71875,0.125 1.7919,0.11978 3.54255,0.29235 5.21875,0.34375 a 1.5476659,1.5476659 0 0 1 1.09375,2.59375 c -1.62745,1.78962 -3.14105,3.98897 -5.28125,5.8125 -1.60836,1.37051 -3.4167,1.96009 -4.75,2.71875 -0.92254,0.52497 -2.43502,1.17576 -3.9375,1.84375 -1.50248,0.66799 -3.04958,1.40537 -3.3125,1.5625 -0.83928,0.50148 -1.93107,0.85714 -3.375,1.28125 -1.44393,0.42411 -3.17754,0.85185 -5.03125,1.25 -3.53616,0.75947 -7.16304,1.9679 -11.09375,2.375 -5.35951,0.55597 -10.7621,0.60844 -16.09375,0.4375 -3.66465,-0.11684 -7.53443,-0.20615 -11.3125,-1.34375 -3.07255,-0.92519 -5.6704,-2.76351 -8,-4.53125 -2.47044,-1.87443 -4.25276,-4.22917 -6.15625,-6.125 a 1.5476659,1.5476659 0 0 1 0.84375,-2.625 c 1.72005,-0.26344 3.62159,-0.8404 5.78125,-0.875 2.74054,-0.044 5.38748,0.332 7.9375,0.65625 4.35558,0.5537 8.39463,1.83985 12.28125,1.90625 3.92895,0.0675 7.96265,-0.81619 12.15625,-1.46875 4.99425,-0.77715 9.97813,-1.7081 14.9375,-2.75 3.9933,-0.83885 8.08351,-2.50648 12.59375,-3.03125 0.94477,-0.10992 1.86643,-0.16096 2.78125,-0.15625 z"
       id="path5590"
       inkscape:connector-curvature="0" />
    <path
       sodipodi:nodetypes="csscssssc"
       inkscape:connector-curvature="0"
       id="path5592"
       d="m 858.89641,489.50504 c -5,-0.59524 -9.9769,-1.43527 -15,-1.78572 -5.22674,-0.36466 -10.4792,-0.14346 -15.71429,-0.35714 -6.43313,-0.26258 -12.85714,-0.71429 -19.28571,-1.07143 2.73809,-1.78571 5.13258,-4.26669 8.21428,-5.35714 4.79836,-1.69788 9.9301,-2.40648 15,-2.85714 5.69184,-0.50594 11.69269,-1.71718 17.14286,0 3.8572,1.21528 6.32064,5.1234 8.92857,8.21428 0.70779,0.83886 0.47619,2.14286 0.71429,3.21429 z"
       style="opacity:0.739;fill:#ffffff;stroke:none" />
    <path
       sodipodi:nodetypes="sssscssscs"
       inkscape:connector-curvature="0"
       id="path5594"
       d="m 758.89641,488.07647 c -4.01126,1.13362 -8.3447,0.68693 -12.5,0.35714 -3.39832,-0.26971 -6.59184,-2.06712 -10,-2.14286 -2.10901,-0.0469 -4.02489,1.27408 -6.07143,1.78572 -1.29125,0.32281 -2.61905,0.47619 -3.92857,0.71428 1.90476,-2.61905 2.87332,-6.30265 5.71428,-7.85714 3.93268,-2.15184 8.73139,-2.5 13.21429,-2.5 3.20545,0 6.22066,1.56172 9.28571,2.5 2.77202,0.84858 5.47619,1.90476 8.21429,2.85714 -1.30952,1.42857 -2.06366,3.75868 -3.92857,4.28572 z"
       style="opacity:0.739;fill:#ffffff;stroke:none" />
    <path
       style="fill:#ffffff;stroke:none"
       d="m 844.375,352.5 c -14.74969,-0.14911 -31.22083,6.49182 -46.65625,12.6875 21.36444,-8.31988 44.34244,-10.97318 62.6875,-7.3125 28.07969,5.60319 48.16737,20.45489 63.125,41.9375 12.32263,17.69814 14.35631,38.78341 14.90625,58.3125 0.20025,7.11113 -0.81528,14.21542 -1.375,21.3125 0.55972,-7.09708 4.32525,-17.98262 4.125,-25.09375 -0.54994,-19.52909 -3.26314,-44.39263 -14.375,-62.875 -13.43779,-22.35109 -35.03023,-33.53043 -66.1875,-37.375 -5.16459,-0.63727 -10.5667,-1.5363 -16.25,-1.59375 z m 83.1875,203.125 c 0.0648,0.0216 0.12254,0.0688 0.1875,0.0937 l 0,-0.0312 c -0.0588,-0.0224 -0.12884,-0.043 -0.1875,-0.0625 z m -1.25,12.875 c -1.46594,8.67918 -2.70785,17.01766 -3.6875,24.9375 2.4648,-7.64661 3.758,-15.91364 3.6875,-24.9375 z m -200.34375,6.15625 c 0.0228,0.21816 0.0383,0.43821 0.0625,0.65625 0.82106,7.38952 2.13152,14.0027 4.8125,20.9375 3.65286,9.44873 8.29077,18.77836 12.34375,28.0625 2.91644,6.68067 3.82593,12.94837 8.28125,18.71875 0.58197,0.75374 1.19829,1.50464 1.84375,2.25 -2.75681,-7.00078 -5.30243,-14.07359 -8.3125,-20.96875 -4.05298,-9.28414 -9.25339,-18.08252 -12.90625,-27.53125 -2.68098,-6.9348 -5.21019,-14.07923 -6.03125,-21.46875 -0.0231,-0.20761 -0.0407,-0.41728 -0.0625,-0.625 -0.0116,-0.009 -0.0197,-0.0222 -0.0312,-0.0312 z"
       id="path6387"
       inkscape:connector-curvature="0" />
  </g>
</svg>
